<svg width="786" height="150" viewBox="0 0 786 150" fill="none" xmlns="http://www.w3.org/2000/svg">
<path d="M166.603 80.7566L138.65 28.333L96.7734 12.8999L54.6903 28.333L25.5 80.7566" stroke="#38BDF8" stroke-width="20" stroke-linecap="round" stroke-linejoin="round"/>
<path fill-rule="evenodd" clip-rule="evenodd" d="M38.9734 65.5687L39.0442 137.1H60.9907V73.1929C60.9907 71.536 62.3338 70.1929 63.9907 70.1929H128.602C130.259 70.1929 131.602 71.536 131.602 73.1929V137.1H152.309L153.374 65.6752L135.134 31.6183L96.4026 17.3096L57.553 31.6183L38.9734 65.5687ZM128.602 134.243V75.3496L98.2378 104.37L128.602 134.243ZM127.229 137.1L96.0681 106.444L63.9919 137.1H127.229ZM96.0981 102.265L126.517 73.1929H66.5479L96.0981 102.265ZM63.9907 74.8855V132.952L93.9286 104.339L63.9907 74.8855ZM85.7629 49.1557V34.2643L96.174 28.8232L106.585 34.2643V49.1557H85.7629Z" fill="#38BDF8"/>
<path d="M214.045 42.1818V112H203.852V42.1818H214.045ZM260.929 90.2841V59.6364H271.156V112H261.134V102.932H260.588C259.384 105.727 257.452 108.057 254.793 109.92C252.156 111.761 248.872 112.682 244.94 112.682C241.577 112.682 238.599 111.943 236.009 110.466C233.44 108.966 231.418 106.75 229.94 103.818C228.486 100.886 227.759 97.2614 227.759 92.9432V59.6364H237.952V91.7159C237.952 95.2841 238.94 98.125 240.918 100.239C242.895 102.352 245.463 103.409 248.622 103.409C250.531 103.409 252.429 102.932 254.315 101.977C256.224 101.023 257.804 99.5795 259.054 97.6477C260.327 95.7159 260.952 93.2614 260.929 90.2841ZM284.852 112V59.6364H294.636V68.1591H295.284C296.375 65.2727 298.159 63.0227 300.636 61.4091C303.114 59.7727 306.08 58.9545 309.534 58.9545C313.034 58.9545 315.966 59.7727 318.33 61.4091C320.716 63.0455 322.477 65.2955 323.614 68.1591H324.159C325.409 65.3636 327.398 63.1364 330.125 61.4773C332.852 59.7955 336.102 58.9545 339.875 58.9545C344.625 58.9545 348.5 60.4432 351.5 63.4205C354.523 66.3977 356.034 70.8864 356.034 76.8864V112H345.841V77.8409C345.841 74.2955 344.875 71.7273 342.943 70.1364C341.011 68.5455 338.705 67.75 336.023 67.75C332.705 67.75 330.125 68.7727 328.284 70.8182C326.443 72.8409 325.523 75.4432 325.523 78.625V112H315.364V77.1932C315.364 74.3523 314.477 72.0682 312.705 70.3409C310.932 68.6136 308.625 67.75 305.784 67.75C303.852 67.75 302.068 68.2614 300.432 69.2841C298.818 70.2841 297.511 71.6818 296.511 73.4773C295.534 75.2727 295.045 77.3523 295.045 79.7159V112H284.852ZM370.514 112V42.1818H380.707V68.125H381.321C381.912 67.0341 382.764 65.7727 383.878 64.3409C384.991 62.9091 386.537 61.6591 388.514 60.5909C390.491 59.5 393.105 58.9545 396.355 58.9545C400.582 58.9545 404.355 60.0227 407.673 62.1591C410.991 64.2955 413.594 67.375 415.48 71.3977C417.389 75.4205 418.344 80.2614 418.344 85.9205C418.344 91.5795 417.401 96.4318 415.514 100.477C413.628 104.5 411.037 107.602 407.741 109.784C404.446 111.943 400.685 113.023 396.457 113.023C393.276 113.023 390.673 112.489 388.651 111.42C386.651 110.352 385.082 109.102 383.946 107.67C382.81 106.239 381.935 104.966 381.321 103.852H380.469V112H370.514ZM380.503 85.8182C380.503 89.5 381.037 92.7273 382.105 95.5C383.173 98.2727 384.719 100.443 386.741 102.011C388.764 103.557 391.241 104.33 394.173 104.33C397.219 104.33 399.764 103.523 401.81 101.909C403.855 100.273 405.401 98.0568 406.446 95.2614C407.514 92.4659 408.048 89.3182 408.048 85.8182C408.048 82.3636 407.526 79.2614 406.48 76.5114C405.457 73.7614 403.912 71.5909 401.844 70C399.798 68.4091 397.241 67.6136 394.173 67.6136C391.219 67.6136 388.719 68.375 386.673 69.8977C384.651 71.4205 383.116 73.5455 382.071 76.2727C381.026 79 380.503 82.1818 380.503 85.8182ZM462.96 90.2841V59.6364H473.188V112H463.165V102.932H462.619C461.415 105.727 459.483 108.057 456.824 109.92C454.188 111.761 450.903 112.682 446.972 112.682C443.608 112.682 440.631 111.943 438.04 110.466C435.472 108.966 433.449 106.75 431.972 103.818C430.517 100.886 429.79 97.2614 429.79 92.9432V59.6364H439.983V91.7159C439.983 95.2841 440.972 98.125 442.949 100.239C444.926 102.352 447.494 103.409 450.653 103.409C452.563 103.409 454.46 102.932 456.347 101.977C458.256 101.023 459.835 99.5795 461.085 97.6477C462.358 95.7159 462.983 93.2614 462.96 90.2841ZM497.077 80.9091V112H486.884V59.6364H496.668V68.1591H497.315C498.52 65.3864 500.406 63.1591 502.974 61.4773C505.565 59.7955 508.827 58.9545 512.759 58.9545C516.327 58.9545 519.452 59.7045 522.134 61.2045C524.815 62.6818 526.895 64.8864 528.372 67.8182C529.849 70.75 530.588 74.375 530.588 78.6932V112H520.395V79.9205C520.395 76.125 519.406 73.1591 517.429 71.0227C515.452 68.8636 512.736 67.7841 509.281 67.7841C506.918 67.7841 504.815 68.2955 502.974 69.3182C501.156 70.3409 499.713 71.8409 498.645 73.8182C497.599 75.7727 497.077 78.1364 497.077 80.9091ZM566.213 132.727C562.054 132.727 558.474 132.182 555.474 131.091C552.497 130 550.065 128.557 548.179 126.761C546.293 124.966 544.884 123 543.952 120.864L552.713 117.25C553.327 118.25 554.145 119.307 555.168 120.42C556.213 121.557 557.622 122.523 559.395 123.318C561.19 124.114 563.497 124.511 566.315 124.511C570.179 124.511 573.372 123.568 575.895 121.682C578.418 119.818 579.679 116.841 579.679 112.75V102.455H579.031C578.418 103.568 577.531 104.807 576.372 106.17C575.236 107.534 573.668 108.716 571.668 109.716C569.668 110.716 567.065 111.216 563.861 111.216C559.724 111.216 555.997 110.25 552.679 108.318C549.384 106.364 546.77 103.489 544.838 99.6932C542.929 95.875 541.974 91.1818 541.974 85.6136C541.974 80.0455 542.918 75.2727 544.804 71.2955C546.713 67.3182 549.327 64.2727 552.645 62.1591C555.963 60.0227 559.724 58.9545 563.929 58.9545C567.179 58.9545 569.804 59.5 571.804 60.5909C573.804 61.6591 575.361 62.9091 576.474 64.3409C577.611 65.7727 578.486 67.0341 579.099 68.125H579.849V59.6364H589.838V113.159C589.838 117.659 588.793 121.352 586.702 124.239C584.611 127.125 581.781 129.261 578.213 130.648C574.668 132.034 570.668 132.727 566.213 132.727ZM566.111 102.761C569.043 102.761 571.52 102.08 573.543 100.716C575.588 99.3295 577.134 97.3523 578.179 94.7841C579.247 92.1932 579.781 89.0909 579.781 85.4773C579.781 81.9545 579.259 78.8523 578.213 76.1705C577.168 73.4886 575.634 71.3977 573.611 69.8977C571.588 68.375 569.088 67.6136 566.111 67.6136C563.043 67.6136 560.486 68.4091 558.44 70C556.395 71.5682 554.849 73.7045 553.804 76.4091C552.781 79.1136 552.27 82.1364 552.27 85.4773C552.27 88.9091 552.793 91.9205 553.838 94.5114C554.884 97.1023 556.429 99.125 558.474 100.58C560.543 102.034 563.088 102.761 566.111 102.761ZM628.429 59.6364V67.8182H598.838V59.6364H628.429ZM606.952 112V53.5682C606.952 50.2955 607.668 47.5795 609.099 45.4205C610.531 43.2386 612.429 41.6136 614.793 40.5455C617.156 39.4545 619.724 38.9091 622.497 38.9091C624.543 38.9091 626.293 39.0795 627.747 39.4205C629.202 39.7386 630.281 40.0341 630.986 40.3068L628.599 48.5568C628.122 48.4205 627.509 48.2614 626.759 48.0795C626.009 47.875 625.099 47.7727 624.031 47.7727C621.554 47.7727 619.781 48.3864 618.713 49.6136C617.668 50.8409 617.145 52.6136 617.145 54.9318V112H606.952ZM638.946 112V59.6364H649.139V112H638.946ZM644.094 51.5568C642.321 51.5568 640.798 50.9659 639.526 49.7841C638.276 48.5795 637.651 47.1477 637.651 45.4886C637.651 43.8068 638.276 42.375 639.526 41.1932C640.798 39.9886 642.321 39.3864 644.094 39.3864C645.866 39.3864 647.378 39.9886 648.628 41.1932C649.901 42.375 650.537 43.8068 650.537 45.4886C650.537 47.1477 649.901 48.5795 648.628 49.7841C647.378 50.9659 645.866 51.5568 644.094 51.5568ZM673.045 42.1818V112H662.852V42.1818H673.045ZM686.759 112V59.6364H696.543V68.1591H697.19C698.281 65.2727 700.065 63.0227 702.543 61.4091C705.02 59.7727 707.986 58.9545 711.44 58.9545C714.94 58.9545 717.872 59.7727 720.236 61.4091C722.622 63.0455 724.384 65.2955 725.52 68.1591H726.065C727.315 65.3636 729.304 63.1364 732.031 61.4773C734.759 59.7955 738.009 58.9545 741.781 58.9545C746.531 58.9545 750.406 60.4432 753.406 63.4205C756.429 66.3977 757.94 70.8864 757.94 76.8864V112H747.747V77.8409C747.747 74.2955 746.781 71.7273 744.849 70.1364C742.918 68.5455 740.611 67.75 737.929 67.75C734.611 67.75 732.031 68.7727 730.19 70.8182C728.349 72.8409 727.429 75.4432 727.429 78.625V112H717.27V77.1932C717.27 74.3523 716.384 72.0682 714.611 70.3409C712.838 68.6136 710.531 67.75 707.69 67.75C705.759 67.75 703.974 68.2614 702.338 69.2841C700.724 70.2841 699.418 71.6818 698.418 73.4773C697.44 75.2727 696.952 77.3523 696.952 79.7159V112H686.759Z" fill="white"/>
</svg>
